<svg xmlns="http://www.w3.org/2000/svg" width="1600" height="1000" viewBox="0 0 1600 1000">
  <defs>
    <linearGradient id="sea" x1="0" y1="0" x2="0" y2="1">
      <stop offset="0%" stop-color="#081c3a"/>
      <stop offset="100%" stop-color="#123b5d"/>
    </linearGradient>
    <radialGradient id="dream" cx="50%" cy="45%" r="40%">
      <stop offset="0%" stop-color="#f78fb3" stop-opacity="0.95"/>
      <stop offset="100%" stop-color="#f78fb3" stop-opacity="0"/>
    </radialGradient>
  </defs>
  <rect width="1600" height="1000" fill="url(#sea)"/>
  <circle cx="1140" cy="260" r="190" fill="url(#dream)"/>
  <ellipse cx="790" cy="630" rx="250" ry="180" fill="#7c4dff"/>
  <ellipse cx="770" cy="610" rx="210" ry="145" fill="#9d7bff" opacity="0.65"/>
  <circle cx="710" cy="590" r="18" fill="#ffffff" opacity="0.8"/>
  <path d="M610 720 C540 820 500 870 430 900" stroke="#7c4dff" stroke-width="28" fill="none" stroke-linecap="round"/>
  <path d="M670 760 C620 850 600 900 560 940" stroke="#8f67ff" stroke-width="26" fill="none" stroke-linecap="round"/>
  <path d="M760 785 C740 875 750 915 735 955" stroke="#7c4dff" stroke-width="24" fill="none" stroke-linecap="round"/>
  <path d="M860 785 C890 875 930 920 970 950" stroke="#8f67ff" stroke-width="24" fill="none" stroke-linecap="round"/>
  <path d="M950 760 C1020 845 1090 900 1160 930" stroke="#7c4dff" stroke-width="26" fill="none" stroke-linecap="round"/>
  <path d="M1010 715 C1110 790 1180 820 1250 835" stroke="#8f67ff" stroke-width="22" fill="none" stroke-linecap="round"/>
  <circle cx="1160" cy="250" r="52" fill="#ffcf56"/>
  <circle cx="1220" cy="230" r="28" fill="#ffcf56" opacity="0.75"/>
  <circle cx="1090" cy="210" r="18" fill="#ffcf56" opacity="0.75"/>
  <text x="110" y="150" font-family="Georgia, serif" font-size="78" fill="#ddf3ff">章鱼睡着时，皮肤像在放梦的幻灯片</text>
  <text x="110" y="900" font-family="-apple-system, BlinkMacSystemFont, sans-serif" font-size="40" fill="#bfe8ff">Octopus sleep · color shifting · possible dreams</text>
</svg>
